<svg width="123" height="168" viewBox="0 0 123 168" fill="none" xmlns="http://www.w3.org/2000/svg">
<path d="M70.4688 75.2917C70.4688 73.3716 71.1437 71.5302 72.3451 70.1725C73.5465 68.8148 75.176 68.0521 76.875 68.0521C78.574 68.0521 80.2035 68.8148 81.4049 70.1725C82.6063 71.5302 83.2812 73.3716 83.2812 75.2917C83.2812 77.2117 82.6063 79.0531 81.4049 80.4108C80.2035 81.7685 78.574 82.5313 76.875 82.5313C75.176 82.5313 73.5465 81.7685 72.3451 80.4108C71.1437 79.0531 70.4688 77.2117 70.4688 75.2917ZM112.75 69.5V127.417H10.25V69.5C10.25 37.6458 33.3125 11.5833 61.5 11.5833C89.6875 11.5833 112.75 37.6458 112.75 69.5ZM20.5 69.5C20.5 95.0413 38.8988 115.833 61.5 115.833C84.1012 115.833 102.5 95.0413 102.5 69.5C102.5 64.9246 101.885 60.5229 100.809 56.4108C90.9008 59.0151 80.5306 58.2181 71.0259 54.1219C61.5212 50.0256 53.3148 42.8166 47.4575 33.4179C42.435 47.26 32.8513 58.4379 20.7563 64.5192C20.5 66.1408 20.5 67.8204 20.5 69.5ZM46.125 82.5313C47.824 82.5313 49.4535 81.7685 50.6549 80.4108C51.8563 79.0531 52.5312 77.2117 52.5312 75.2917C52.5312 73.3716 51.8563 71.5302 50.6549 70.1725C49.4535 68.8148 47.824 68.0521 46.125 68.0521C44.426 68.0521 42.7965 68.8148 41.5951 70.1725C40.3937 71.5302 39.7188 73.3716 39.7188 75.2917C39.7188 77.2117 40.3937 79.0531 41.5951 80.4108C42.7965 81.7685 44.426 82.5313 46.125 82.5313Z" fill="black"/>
<text fill="black" xml:space="preserve" style="white-space: pre" font-family="Inter" font-size="24" letter-spacing="0em"><tspan x="36" y="162.227">100%</tspan></text>
</svg>
