<svg xmlns="http://www.w3.org/2000/svg" width="132" height="169" viewBox="0 0 132 169" fill="none">
<path d="M49.5 68.5417C47.6766 68.5417 45.928 69.3099 44.6386 70.6773C43.3493 72.0448 42.625 73.8995 42.625 75.8333C42.625 77.7672 43.3493 79.6219 44.6386 80.9893C45.928 82.3568 47.6766 83.125 49.5 83.125C50.4028 83.125 51.2968 82.9364 52.1309 82.57C52.9651 82.2035 53.723 81.6664 54.3614 80.9893C54.9998 80.3122 55.5062 79.5084 55.8517 78.6237C56.1972 77.7391 56.375 76.7909 56.375 75.8333C56.375 74.8758 56.1972 73.9276 55.8517 73.0429C55.5062 72.1583 54.9998 71.3544 54.3614 70.6773C53.723 70.0003 52.9651 69.4632 52.1309 69.0967C51.2968 68.7303 50.4028 68.5417 49.5 68.5417ZM82.5 68.5417C80.6766 68.5417 78.928 69.3099 77.6386 70.6773C76.3493 72.0448 75.625 73.8995 75.625 75.8333C75.625 77.7672 76.3493 79.6219 77.6386 80.9893C78.928 82.3568 80.6766 83.125 82.5 83.125C84.3234 83.125 86.072 82.3568 87.3614 80.9893C88.6507 79.6219 89.375 77.7672 89.375 75.8333C89.375 73.8995 88.6507 72.0448 87.3614 70.6773C86.072 69.3099 84.3234 68.5417 82.5 68.5417ZM66 11.6667C58.7773 11.6667 51.6253 13.1755 44.9524 16.107C38.2795 19.0386 32.2163 23.3354 27.1091 28.7521C16.7946 39.6917 11 54.529 11 70C11 85.471 16.7946 100.308 27.1091 111.248C32.2163 116.665 38.2795 120.961 44.9524 123.893C51.6253 126.825 58.7773 128.333 66 128.333C80.5869 128.333 94.5764 122.188 104.891 111.248C115.205 100.308 121 85.471 121 70C121 62.3396 119.577 54.7541 116.813 47.6768C114.049 40.5995 109.998 34.1689 104.891 28.7521C99.7837 23.3354 93.7205 19.0386 87.0476 16.107C80.3747 13.1755 73.2227 11.6667 66 11.6667ZM66 116.667C41.745 116.667 22 95.725 22 70C22 68.3083 22 66.6167 22.275 64.9833C35.255 58.8583 45.54 47.6 50.93 33.6583C57.2159 43.1246 66.0228 50.3855 76.2229 54.5112C86.4231 58.6369 97.5521 59.4397 108.185 56.8167C109.34 60.9583 110 65.3917 110 70C110 95.725 90.255 116.667 66 116.667Z" fill="url(#fade)"/>
<text fill="black" xml:space="preserve" style="white-space: pre" font-family="Inter" font-size="24" letter-spacing="0em"><tspan x="40" y="163.227">50%</tspan></text>
<defs><linearGradient id="fade" x1="0%" y1="100%" x2="0%" y2="0%"><stop offset="50%" style="stop-color: #CD3E64; stop-opacity:1"/><stop offset="51%" style="stop-color: #E3E3E3; stop-opacity:1"/><stop offset="100%" style="stop-color: #E3E3E3; stop-opacity:1"/></linearGradient></defs></svg>