<svg xmlns="http://www.w3.org/2000/svg" width="156" height="177" viewBox="0 0 156 177" fill="none">
<path d="M46.5757 17.0547L45.293 22.8359H55.5963L54.3133 17.0547H46.5757ZM47.7025 28.0391V32.0859H53.1869V28.0391H47.7025ZM38.344 37.2891L35.9735 64.4609H41.1974L43.0255 41.3359H82.8009L82.1916 37.2891H38.344ZM130.577 43.9375V65.5021C132.408 65.6363 134.236 65.7968 136.062 65.9837V43.9375H130.577ZM48.1138 46.5391L46.6967 64.4609H48.6162C51.664 64.4609 54.5711 65.6981 57.4522 67.538V46.5391H48.1138ZM62.9369 46.5391V70.8955L86.7025 73.4048V67.2489L83.584 46.5391H62.9369ZM26.0697 69.6641C23.6322 69.6641 18.9729 71.6178 14.6814 74.875C11.3578 77.3974 8.20554 80.6244 5.92252 83.8839L11.0452 85.0988C17.1451 77.8229 26.5471 73.1328 37.0381 73.1328C52.4535 73.1328 65.5203 83.2569 69.2088 96.8359H75.4272C72.6448 91.4192 68.3959 85.2122 63.7507 80.1024C60.9079 76.975 57.9424 74.2662 55.2362 72.413C52.5303 70.5596 50.0931 69.6641 48.6165 69.6641H26.0697ZM92.1869 69.6811V101.461H101.983C104.751 92.7443 109.964 86.7849 116.95 83.7723C120.701 82.1547 124.868 81.3717 129.362 81.2928C132.835 81.2315 136.505 81.596 140.327 82.316V71.7682C136.825 71.2533 132.685 70.8495 128.252 70.5532C116.001 69.7349 102 69.686 92.1869 69.6811ZM145.812 72.807V78.3359H150.077V74.4596C148.865 73.6797 147.059 73.1282 145.812 72.807ZM67.8539 76.6501L67.9039 76.7039C73.9964 83.4052 79.4342 91.6166 82.2504 98.4952L83.7013 102.039H70.1336C70.2088 102.898 70.2494 103.765 70.2494 104.641C70.2494 106.716 70.0321 108.745 69.6226 110.711H86.7025V78.6409L67.8539 76.6501ZM37.0384 78.3359C21.7794 78.3359 9.31186 90.1644 9.31186 104.641C9.31186 119.117 21.7794 130.945 37.0384 130.945C52.2972 130.945 64.765 119.117 64.765 104.641C64.765 90.1644 52.2972 78.3359 37.0384 78.3359ZM145.812 83.5391V87.5859H150.077V83.5391H145.812ZM37.0384 84.6953C48.6653 84.6953 58.0619 93.61 58.0619 104.641C58.0619 115.671 48.6653 124.586 37.0384 124.586C25.4112 124.586 16.015 115.671 16.015 104.641C16.015 93.61 25.4112 84.6953 37.0384 84.6953ZM130.761 86.5077C126.833 86.5551 122.422 87.1622 119.22 88.5089C114.089 90.7214 110.179 94.7368 107.736 101.461H110.957C115.203 94.894 122.843 90.4766 131.492 90.4766C134.519 90.4773 137.518 91.0268 140.327 92.0953V87.6299C136.92 86.9315 133.721 86.5537 130.761 86.5077ZM37.0384 89.8984C28.328 89.8984 21.4994 96.3772 21.4994 104.641C21.4994 112.904 28.328 119.383 37.0384 119.383C45.7485 119.383 52.5775 112.904 52.5775 104.641C52.5775 96.3772 45.7485 89.8984 37.0384 89.8984ZM145.812 92.7891V95.0062C147.393 96.1254 148.825 97.4218 150.077 98.8672V92.7891H145.812ZM131.492 95.6797C121.287 95.6797 112.906 103.631 112.906 113.312C112.906 122.994 121.287 130.945 131.492 130.945C141.696 130.945 150.077 122.994 150.077 113.312C150.077 103.631 141.696 95.6797 131.492 95.6797ZM131.492 102.039C138.047 102.039 143.374 107.093 143.374 113.312C143.374 119.532 138.047 124.586 131.492 124.586C124.936 124.586 119.609 119.532 119.609 113.312C119.609 107.093 124.936 102.039 131.492 102.039ZM92.1869 106.664V111.109L107.424 113.518C107.423 113.45 107.421 113.381 107.421 113.312C107.421 111.003 107.793 108.771 108.477 106.664H92.1869ZM131.492 107.242C127.806 107.242 125.093 109.816 125.093 113.312C125.093 116.809 127.806 119.383 131.492 119.383C135.176 119.383 137.89 116.809 137.89 113.312C137.89 109.816 135.176 107.242 131.492 107.242Z" fill="url(#fade)"/>
<text fill="black" xml:space="preserve" style="white-space: pre" font-family="Inter" font-size="24" letter-spacing="0em"><tspan x="48" y="171.227">13.7%</tspan></text>
<defs><linearGradient id="fade" x1="0%" y1="0%" x2="100%" y2="0%"><stop offset="13.7%" style="stop-color: #000000; stop-opacity:1"/><stop offset="14.7%" style="stop-color: #E3E3E3; stop-opacity:1"/><stop offset="100%" style="stop-color: #E3E3E3; stop-opacity:1"/></linearGradient></defs></svg>