<svg xmlns="http://www.w3.org/2000/svg" width="138" height="134" viewBox="0 0 138 134" fill="none">
<path fill-rule="evenodd" clip-rule="evenodd" d="M34.5 78.1665C40.8512 78.1665 46.0001 83.1661 46.0001 89.3332C46.0001 95.5004 40.8512 100.5 34.5 100.5C28.1488 100.5 23.0002 95.5004 23.0002 89.3332C23.0002 83.1661 28.1488 78.1665 34.5 78.1665ZM100.625 78.1665C106.976 78.1665 112.125 83.1661 112.125 89.3332C112.125 95.5004 106.976 100.5 100.625 100.5C94.274 100.5 89.1251 95.5004 89.1251 89.3332C89.1251 83.1661 94.274 78.1665 100.625 78.1665ZM76.6666 39.0832L78.2002 40.2L100.263 56.2687L117.789 60.5259C122.608 61.6957 126.072 65.721 126.463 70.4623L126.5 71.3592V90.9009L122.145 91.9583L117.437 93.1012C117.729 91.8653 117.876 90.6013 117.875 89.3332C117.875 80.0825 110.152 72.5832 100.625 72.5832C91.0983 72.5832 83.3752 80.0825 83.3752 89.3332C83.3752 91.2909 83.721 93.1703 84.3568 94.9168H50.7684C51.4202 93.1233 51.7521 91.2351 51.75 89.3332C51.75 80.0825 44.0271 72.5832 34.5 72.5832C24.9732 72.5832 17.25 80.0825 17.25 89.3332C17.25 90.1823 17.3152 91.0164 17.4406 91.8313L11.5001 86.0625V59.3952L12.8329 57.8422L27.2078 41.0922L28.932 39.0832H76.6666ZM72.8354 50.25H34.3162L24.7343 61.4165H80.5001L83.7862 58.2256L72.8354 50.25Z" fill="url(#fade)"/>
<text fill="black" xml:space="preserve" style="white-space: pre" font-family="Inter" font-size="24" letter-spacing="0em"><tspan x="39" y="128.227">50%</tspan></text>
<defs><linearGradient id="fade" x1="0%" y1="0%" x2="100%" y2="0%"><stop offset="50%" style="stop-color: #000000; stop-opacity:1"/><stop offset="51%" style="stop-color: #E3E3E3; stop-opacity:1"/><stop offset="100%" style="stop-color: #E3E3E3; stop-opacity:1"/></linearGradient></defs></svg>